#!OML:ASF F:\VICON\USERDATA\INSTALL\rory3\rory3.ASF
:FULLY-SPECIFIED
:DEGREES
530
root -0.243401 17.0136 22.8333 9.78537 2.39141 -0.433307
lowerback -11.4431 -1.46594 -1.65008
upperback -4.66803 -1.79012 1.04655
thorax 1.62425 -0.868277 1.78771
lowerneck -14.8506 -2.72467 -7.3824
upperneck 27.97 -3.26152 4.62556
head 11.8157 -1.67776 2.51659
rclavicle -2.80783e-015 -7.05686e-015
rhumerus -44.6862 1.29916 -87.3658
rradius 29.8182
rwrist 2.39997
rhand -24.007 -48.7273
rfingers 7.12502
rthumb 2.47064 -78.6927
lclavicle -2.80783e-015 -7.05686e-015
lhumerus -33.2836 -11.3976 93.4767
lradius 33.805
lwrist 6.93888
lhand -32.7705 -28.6223
lfingers 7.12502
lthumb -5.99263 1.27299
rfemur -36.9775 6.99018 21.9105
rtibia 31.7837
rfoot -3.60242 -12.9149
rtoes -0.240507
lfemur -0.122545 0.994095 -19.2123
ltibia 36.0928
lfoot 1.23827 -17.4823
ltoes -14.8877
531
root -0.264567 17.019 22.9896 9.73266 2.25844 -0.969604
lowerback -11.3942 -1.35497 -1.1166
upperback -4.83445 -1.70348 1.21205
thorax 1.4114 -0.826337 1.67345
lowerneck -14.5091 -2.70359 -7.54275
upperneck 28.0369 -3.22521 4.6574
head 11.7736 -1.67958 2.56432
rclavicle 2.48605e-014 7.25564e-015
rhumerus -45.127 1.3828 -87.2917
rradius 30.0447
rwrist 2.62009
rhand -23.9281 -48.9688
rfingers 7.12502
rthumb 2.5468 -78.9334
lclavicle 2.48605e-014 7.25564e-015
lhumerus -34.1162 -10.7086 93.2863
lradius 33.4785
lwrist 7.3038
lhand -32.6442 -28.5819
lfingers 7.12502
lthumb -5.87072 1.31679
rfemur -36.4436 6.93606 22.7778
rtibia 32.0458
rfoot -4.0183 -12.5583
rtoes 0.497272
lfemur -0.927609 1.50563 -18.3053
ltibia 38.1336
lfoot 2.91735 -17.9015
ltoes -14.3284
532
root -0.278707 17.0297 23.1526 9.72975 2.163 -1.24516
lowerback -11.5256 -1.25502 -0.722743
upperback -4.88655 -1.61251 1.25937
thorax 1.41631 -0.784549 1.51031
lowerneck -14.7861 -2.7677 -7.48508
upperneck 28.3636 -3.25882 4.44895
head 11.9573 -1.71494 2.47489
rclavicle 2.85753e-015 3.97569e-016
rhumerus -45.3249 1.55524 -87.3351
rradius 30.285
rwrist 2.7182
rhand -23.7777 -49.2886
rfingers 7.12502
rthumb 2.69209 -79.2514
lclavicle 2.85753e-015 3.97569e-016
lhumerus -34.8201 -10.402 93.1672
lradius 33.2405
lwrist 8.41908
lhand -32.6797 -29.5858
lfingers 7.12502
lthumb -5.90501 0.311871
rfemur -35.9053 6.67405 23.3504
rtibia 32.2532
rfoot -4.44198 -12.0566
rtoes 1.59326
lfemur -1.77947 1.81401 -17.7746
ltibia 40.1862
lfoot 4.1905 -18.2228
ltoes -13.8825
533
root -0.299162 17.0404 23.3148 9.72334 2.00994 -1.44012
lowerback -11.7107 -1.13852 -0.513004
upperback -4.88961 -1.48039 1.26242
thorax 1.50439 -0.721194 1.40884
lowerneck -14.7476 -2.74597 -7.54704
upperneck 28.377 -3.26207 4.61087
head 11.9584 -1.70301 2.54696
rclavicle -7.30534e-015 4.87022e-015
rhumerus -45.3776 1.84157 -87.573
rradius 30.3962
rwrist 2.28207
rhand -23.9446 -49.7667
rfingers 7.12502
rthumb 2.53088 -79.7315
lclavicle -7.30534e-015 4.87022e-015
lhumerus -35.465 -9.89163 92.8376
lradius 33.0707
lwrist 8.87195
lhand -32.6914 -29.9636
lfingers 7.12502
lthumb -5.91624 -0.066192
rfemur -35.3782 6.68163 23.7657
rtibia 32.4017
rfoot -4.98053 -11.8568
rtoes 3.64298
lfemur -2.73121 2.13661 -17.3367
ltibia 42.2585
lfoot 5.408 -18.636
ltoes -14.5539
